<?xml version="1.0" standalone="no"?>
<!DOCTYPE svg PUBLIC "-//W3C//DTD SVG 20010904//EN"
 "http://www.w3.org/TR/2001/REC-SVG-20010904/DTD/svg10.dtd">
<svg version="1.0" xmlns="http://www.w3.org/2000/svg"
 width="700.000000pt" height="700.000000pt" viewBox="0 0 700.000000 700.000000"
 preserveAspectRatio="xMidYMid meet">
<metadata>
Created by potrace 1.14, written by Peter Selinger 2001-2017
</metadata>
<g transform="translate(0.000000,700.000000) scale(0.100000,-0.100000)"
fill="#000000" stroke="none">
<path d="M560 3500 l0 -3501 2003 4 c1101 3 2020 7 2042 10 22 3 65 8 95 12
59 7 151 21 186 29 12 2 39 7 60 10 198 32 465 126 647 227 494 278 778 755
835 1399 14 165 7 549 -12 646 -2 12 -7 38 -10 58 -3 19 -11 57 -17 83 -6 27
-13 57 -15 69 -2 11 -18 63 -35 115 -120 366 -358 647 -700 827 -113 59 -278
119 -440 161 l-144 36 0 39 c0 39 12 50 68 61 322 66 624 247 807 486 55 73
146 234 177 314 40 106 87 308 100 435 9 97 10 369 1 485 -42 526 -281 942
-678 1183 -245 148 -585 255 -915 287 -33 4 -76 9 -95 12 -19 4 -918 8 -1997
10 l-1963 4 0 -3501z m3435 2496 c86 -16 240 -57 288 -78 252 -107 424 -322
463 -578 3 -19 10 -53 15 -75 4 -22 7 -119 5 -215 -4 -161 -7 -203 -22 -252
-3 -10 -7 -30 -10 -44 -10 -54 -66 -183 -105 -245 -87 -134 -204 -223 -394
-300 -28 -11 -124 -37 -160 -43 -16 -3 -43 -7 -60 -10 -97 -16 -257 -19 -1085
-20 l-915 -1 -1 938 -2 938 972 -4 c534 -2 989 -7 1011 -11z m-15 -2780 c460
-52 744 -254 867 -615 48 -144 65 -260 67 -456 1 -194 -5 -263 -32 -391 -67
-303 -234 -524 -483 -637 -114 -52 -123 -55 -211 -76 -180 -44 -254 -47 -1238
-46 l-935 0 -2 1105 c-1 608 -1 1110 1 1115 4 12 1863 13 1966 1z"/>
</g>
</svg>
